<svg width="80" height="80" viewBox="0 0 680 680" role="img" xmlns="http://www.w3.org/2000/svg">
  <title>Logo Cine Brasilis</title>
  <rect x="0" y="0" width="680" height="680" rx="40" fill="#0a1628"/>

  <circle cx="340" cy="340" r="220" fill="#009C3B"/>
  <polygon points="340,140 540,340 340,540 140,340" fill="#FFDF00"/>
  <circle cx="340" cy="340" r="126" fill="#002776"/>
  <path d="M 320 270 A 72 72 0 1 0 320 410 L 320 388 A 50 50 0 1 1 304 292 Z" fill="white"/>
  <rect x="352" y="270" width="18" height="140" rx="4" fill="#FFDF00"/>
  <path d="M 370 270 Q 424 270 424 305 Q 424 340 370 340" stroke="#FFDF00" stroke-width="18" fill="none" stroke-linecap="round"/>
  <path d="M 370 340 Q 432 340 432 375 Q 432 410 370 410" stroke="#FFDF00" stroke-width="18" fill="none" stroke-linecap="round"/>
</svg>
